HIERARCHY
ROOT Hips
{
 OFFSET 0.000000 0.000000 0.000000
 CHANNELS 6 Xposition Yposition Zposition Yrotation Xrotation Zrotation
 JOINT Chest
 {
  OFFSET 0.000000 9.585900 0.002600
  CHANNELS 3 Yrotation Xrotation Zrotation
  JOINT Chest2
  {
   OFFSET 0.000000 9.601200 -0.005300
   CHANNELS 3 Yrotation Xrotation Zrotation
   JOINT Chest3
   {
    OFFSET 0.000000 9.561800 0.000000
    CHANNELS 3 Yrotation Xrotation Zrotation
    JOINT Chest4
    {
     OFFSET 0.000000 9.552100 0.000000
     CHANNELS 3 Yrotation Xrotation Zrotation
     JOINT Neck
     {
      OFFSET 0.000000 14.453000 0.000000
      CHANNELS 3 Yrotation Xrotation Zrotation
      JOINT Head
      {
       OFFSET 0.000000 8.936500 -0.011300
       CHANNELS 3 Yrotation Xrotation Zrotation
       End Site
       {
        OFFSET 0.000000 17.073600 -0.006000
       }
      }
     }
     JOINT RightCollar
     {
      OFFSET -2.921100 9.558500 0.000000
      CHANNELS 3 Yrotation Xrotation Zrotation
      JOINT RightShoulder
      {
       OFFSET -13.519700 0.000000 0.000000
       CHANNELS 3 Yrotation Xrotation Zrotation
       JOINT RightElbow
       {
        OFFSET 0.000000 -29.696600 0.000000
        CHANNELS 3 Yrotation Xrotation Zrotation
        JOINT RightWrist
        {
         OFFSET 0.000000 -24.004700 0.000000
         CHANNELS 3 Yrotation Xrotation Zrotation
         End Site
         {
          OFFSET 0.000000 -17.728500 0.000000
         }
        }
       }
      }
     }
     JOINT LeftCollar
     {
      OFFSET 2.921100 9.558500 0.000000
      CHANNELS 3 Yrotation Xrotation Zrotation
      JOINT LeftShoulder
      {
       OFFSET 13.519700 0.000000 0.000000
       CHANNELS 3 Yrotation Xrotation Zrotation
       JOINT LeftElbow
       {
        OFFSET 0.000000 -29.696600 0.000000
        CHANNELS 3 Yrotation Xrotation Zrotation
        JOINT LeftWrist
        {
         OFFSET 0.000000 -24.004700 0.000000
         CHANNELS 3 Yrotation Xrotation Zrotation
         End Site
         {
          OFFSET 0.000000 -17.728500 0.000000
         }
        }
       }
      }
     }
    }
   }
  }
 }
 JOINT RightHip
 {
  OFFSET -7.771700 -0.012900 -0.001300
  CHANNELS 3 Yrotation Xrotation Zrotation
  JOINT RightKnee
  {
   OFFSET 0.000000 -40.869800 0.001200
   CHANNELS 3 Yrotation Xrotation Zrotation
   JOINT RightAnkle
   {
    OFFSET 0.000000 -39.717900 0.002100
    CHANNELS 3 Yrotation Xrotation Zrotation
    JOINT RightToe
    {
     OFFSET 0.000000 -4.965400 11.033500
     CHANNELS 3 Yrotation Xrotation Zrotation
     End Site
     {
      OFFSET 0.000000 -1.423100 5.872300
     }
    }
   }
  }
 }
 JOINT LeftHip
 {
  OFFSET 7.771700 -0.012900 -0.001300
  CHANNELS 3 Yrotation Xrotation Zrotation
  JOINT LeftKnee
  {
   OFFSET 0.000000 -40.869800 0.001200
   CHANNELS 3 Yrotation Xrotation Zrotation
   JOINT LeftAnkle
   {
    OFFSET 0.000000 -39.717900 0.002100
    CHANNELS 3 Yrotation Xrotation Zrotation
    JOINT LeftToe
    {
     OFFSET 0.000000 -4.965400 11.033500
     CHANNELS 3 Yrotation Xrotation Zrotation
     End Site
     {
      OFFSET 0.000000 -1.423100 5.872300
     }
    }
   }
  }
 }
}
MOTION
Frames: 7
Frame Time: 0.008333
-57.877533 50.543254 -0.473520 164.017634 -8.608702 -0.062162 3.877417 8.097602 0.645325 0.193751 0.443527 -0.023219 0.340902 0.770463 -0.040592 3.400432 7.699483 -0.195523 1.408525 19.001006 0.283835 2.489476 -0.503373 0.077160 2.433697 6.561008 0.432591 -5.394274 -12.508205 -8.186778 -48.049623 -72.507963 69.792754 -1.803413 2.219168 -26.372914 -6.271424 3.606008 0.165036 19.362968 -7.261714 2.660973 55.870737 -78.068861 -81.443075 0.837126 8.432095 15.333295 -6.645638 -71.777146 -1.258597 -116.724385 79.809659 -113.924353 0.936354 -15.976668 -1.767993 -0.325086 0.948499 -0.143328 -6.938904 -75.692474 23.815270 113.522720 78.780245 110.319386 -15.789973 -22.462669 0.353490 -0.371243 -1.070588 -0.158828
-57.877229 50.543046 -0.477227 164.011633 -8.628191 -0.057324 3.881606 8.117030 0.643496 0.191527 0.444580 -0.023928 0.336697 0.770793 -0.040221 3.397464 7.700614 -0.195476 1.395078 19.006766 0.282802 2.499739 -0.506320 0.070871 2.439984 6.551463 0.429299 -5.406110 -12.504464 -8.181829 -48.029022 -72.510555 69.786396 -1.806023 2.213141 -26.381877 -6.270335 3.596859 0.163700 19.357140 -7.266550 2.661768 55.838450 -78.064178 -81.398724 0.833971 8.431549 15.330607 -6.620814 -71.759805 -1.279983 -116.757666 79.807534 -113.952730 0.930191 -15.973929 -1.776116 -0.319265 0.940195 -0.140696 -6.884098 -75.675786 23.769415 113.593337 78.791004 110.393765 -15.775255 -22.471028 0.359147 -0.341049 -1.070447 -0.157552
-57.877960 50.542566 -0.480172 164.010724 -8.640729 -0.048401 3.868761 8.133086 0.633071 0.202652 0.442209 -0.023413 0.329120 0.771432 -0.040783 3.377305 7.705401 -0.197609 1.410300 19.005754 0.282208 2.493133 -0.494284 0.073625 2.463344 6.532605 0.424705 -5.410201 -12.497952 -8.178532 -48.022361 -72.514978 69.784615 -1.812893 2.217398 -26.383128 -6.252716 3.583863 0.163524 19.355734 -7.267890 2.663596 55.825224 -78.063019 -81.391102 0.835989 8.433307 15.343241 -6.589763 -71.749161 -1.312957 -116.787593 79.805503 -113.979515 0.925627 -15.976188 -1.783822 -0.312869 0.937765 -0.136009 -6.810068 -75.662261 23.700364 113.612737 78.800061 110.417395 -15.781542 -22.487638 0.366633 -0.375535 -1.060583 -0.163581
-57.876837 50.541845 -0.481493 164.011467 -8.646458 -0.053334 3.866306 8.138839 0.637867 0.194850 0.443340 -0.023662 0.331882 0.769848 -0.041367 3.377088 7.706781 -0.197652 1.406979 19.008808 0.283188 2.496522 -0.489035 0.074844 2.471164 6.529632 0.423498 -5.412969 -12.503749 -8.173180 -48.007824 -72.513494 69.763074 -1.813622 2.219603 -26.378780 -6.251079 3.579080 0.163430 19.343413 -7.275280 2.663569 55.806861 -78.055503 -81.396168 0.831554 8.437638 15.368657 -6.603731 -71.742782 -1.299789 -116.815001 79.808176 -114.002709 0.919746 -15.974405 -1.788211 -0.309865 0.933206 -0.136048 -6.821103 -75.655126 23.712588 113.636932 78.804994 110.438364 -15.756103 -22.500824 0.367971 -0.372716 -1.054616 -0.166070
-57.879010 50.541055 -0.483584 164.025018 -8.651203 -0.040490 3.843961 8.143696 0.620679 0.191044 0.443351 -0.024123 0.337499 0.770511 -0.040168 3.375988 7.707619 -0.198374 1.405246 19.012342 0.285186 2.499021 -0.482098 0.076090 2.472635 6.522414 0.424451 -5.414424 -12.500302 -8.175828 -48.005263 -72.507152 69.762211 -1.816563 2.212285 -26.381042 -6.249594 3.574318 0.163703 19.326524 -7.283005 2.664094 55.769866 -78.049886 -81.356580 0.833171 8.436024 15.368307 -6.574313 -71.742441 -1.348903 -116.864912 79.806235 -114.053591 0.923523 -15.978343 -1.786547 -0.311406 0.931062 -0.138688 -6.772325 -75.651192 23.652599 113.641272 78.810329 110.440650 -15.779607 -22.499499 0.380391 -0.394060 -1.060352 -0.172719
-57.876788 50.540162 -0.483540 164.025966 -8.651424 -0.055022 3.838516 8.143485 0.632375 0.193968 0.443278 -0.023686 0.338926 0.770183 -0.039114 3.369248 7.706967 -0.198084 1.406456 19.018417 0.284732 2.500535 -0.474223 0.076625 2.485737 6.516461 0.416737 -5.426724 -12.495112 -8.166734 -48.002178 -72.506711 69.767291 -1.816293 2.199594 -26.400193 -6.246559 3.568580 0.162366 19.320286 -7.281601 2.666399 55.758724 -78.046295 -81.347027 0.832291 8.433619 15.371601 -6.615072 -71.741563 -1.306868 -116.878477 79.806012 -114.066162 0.932905 -15.968190 -1.783998 -0.321283 0.921383 -0.143394 -6.826738 -75.648828 23.707347 113.639498 78.809667 110.432755 -15.734572 -22.507146 0.382330 -0.357731 -1.063461 -0.172616
-57.875594 50.539389 -0.484169 164.026925 -8.654807 -0.062885 3.835769 8.146490 0.638042 0.193747 0.443368 -0.023623 0.339609 0.770450 -0.038151 3.356525 7.710273 -0.199259 1.417921 19.017811 0.284556 2.500936 -0.470040 0.076839 2.501047 6.509839 0.414207 -5.433660 -12.495449 -8.162624 -48.012630 -72.503523 69.778886 -1.812248 2.202998 -26.400435 -6.237695 3.558619 0.164013 19.322409 -7.276167 2.667194 55.758596 -78.044758 -81.346735 0.835833 8.430678 15.355700 -6.639295 -71.737004 -1.283676 -116.897980 79.809497 -114.082332 0.930814 -15.966658 -1.782998 -0.321544 0.918189 -0.147088 -6.859525 -75.642325 23.741307 113.635862 78.810722 110.423454 -15.721010 -22.508136 0.384516 -0.341478 -1.065031 -0.170346
